<svg xmlns="http://www.w3.org/2000/svg" viewBox="0 0 18 18"><style>.st0{fill:#e0e0e0}</style><path class="st0" d="M6.5 9.9c0-.2-.2-.4-.4-.4H4.6c-.2 0-.4.2-.4.4v1.4c0 .2.2.4.4.4h1.5c.2 0 .4-.2.4-.4V9.9zm3.6 0c0-.2-.2-.4-.4-.4H8.3c-.3 0-.4.2-.4.4v1.4c0 .2.2.4.4.4h1.5c.2 0 .4-.2.4-.4V9.9zm3.7 0c0-.2-.2-.4-.4-.4h-1.5c-.2 0-.4.2-.4.4v1.4c0 .2.2.4.4.4h1.5c.2 0 .4-.2.4-.4V9.9zm-7.3 3.6c0-.2-.2-.4-.4-.4H4.6c-.2 0-.4.2-.4.4v1.4c0 .2.2.4.4.4h1.5c.2 0 .4-.2.4-.4v-1.4zm3.6 0c0-.2-.2-.4-.4-.4H8.3c-.2 0-.4.2-.4.4v1.4c0 .2.2.4.4.4h1.5c.2 0 .4-.2.4-.4v-1.4zm3.7 0c0-.2-.2-.4-.4-.4h-1.5c-.2 0-.4.2-.4.4v1.4c0 .2.2.4.4.4h1.5c.2 0 .4-.2.4-.4v-1.4z"/><path class="st0" d="M16.4 2v2.2c0 1-.8 1.8-1.8 1.8h-1.1c-1 0-1.8-.8-1.8-1.8V2H6.4v2.2c0 1-.8 1.8-1.8 1.8H3.4c-1 0-1.8-.8-1.8-1.8V2C.7 2 0 2.7 0 3.6v12.8c0 .9.7 1.6 1.6 1.6h14.7c.9 0 1.6-.7 1.6-1.6V3.6c.1-.9-.6-1.6-1.5-1.6zm-.5 13.6c0 .4-.3.7-.7.7H2.8c-.4 0-.7-.3-.7-.7V9c0-.4.3-.7.7-.7h12.3c.4 0 .7.3.7.7l.1 6.6z"/><path class="st0" d="M3.4 4.8h1.1c.3 0 .6-.3.6-.6V.6c.1-.3-.2-.6-.5-.6H3.4c-.3 0-.6.3-.6.6v3.6c0 .3.3.6.6.6zm10 0h1.1c.3 0 .6-.3.6-.6V.6c0-.3-.3-.6-.6-.6h-1.1c-.3 0-.6.3-.6.6v3.6c0 .3.3.6.6.6z"/></svg>